<?xml version="1.0" encoding="UTF-8"?>
<svg xmlns="http://www.w3.org/2000/svg" xmlns:xlink="http://www.w3.org/1999/xlink" width="11px" height="13px" viewBox="0 0 11 12" version="1.1">
<g id="surface1">
<path style=" stroke:none;fill-rule:nonzero;fill:#3d525e;fill-opacity:1;" d="M 10.769531 6.53125 C 11.074219 6.238281 11.074219 5.761719 10.769531 5.46875 L 6.839844 1.71875 C 6.535156 1.425781 6.035156 1.425781 5.726562 1.71875 C 5.421875 2.011719 5.421875 2.488281 5.726562 2.78125 L 8.320312 5.25 L 0.785156 5.25 C 0.351562 5.25 0 5.585938 0 6 C 0 6.414062 0.351562 6.75 0.785156 6.75 L 8.316406 6.75 L 5.730469 9.21875 C 5.425781 9.511719 5.425781 9.988281 5.730469 10.28125 C 6.039062 10.574219 6.535156 10.574219 6.84375 10.28125 L 10.773438 6.53125 Z M 10.769531 6.53125 "/>
</g>
</svg>
