<svg xmlns="http://www.w3.org/2000/svg" width="5.19" height="9.531" viewBox="0 0 5.19 9.531">
  <defs>
    <style>
      .cls-1 {
        fill: #243f4d;
        fill-rule: evenodd;
      }
    </style>
  </defs>
  <path class="cls-1" d="M1517.47,684.538a0.45,0.45,0,0,0,.33-0.14l4.22-4.265a0.226,0.226,0,0,1,.02-0.013,0.446,0.446,0,0,0,.09-0.144h0a0.546,0.546,0,0,0,.05-0.217v0a0.522,0.522,0,0,0-.05-0.211h0a0.459,0.459,0,0,0-.09-0.147,0.212,0.212,0,0,0-.02-0.012l-4.22-4.265a0.461,0.461,0,0,0-.68.019,0.539,0.539,0,0,0,.02.724l3.86,3.9-3.86,3.9a0.524,0.524,0,0,0-.15.371,0.519,0.519,0,0,0,.13.353A0.472,0.472,0,0,0,1517.47,684.538Z" transform="translate(-1517 -675)"/>
</svg>
